<?xml version="1.0" encoding="UTF-8"?>
<svg width="44px" height="33px" viewBox="0 0 44 33" version="1.1" xmlns="http://www.w3.org/2000/svg" xmlns:xlink="http://www.w3.org/1999/xlink">
    <!-- Generator: sketchtool 52.5 (67469) - http://www.bohemiancoding.com/sketch -->
    <title>AF11F691-6846-414B-8153-8537711B9277</title>
    <desc>Created with sketchtool.</desc>
    <defs>
        <polygon id="path-1" points="0.0004 0.255997615 39.2775718 0.255997615 39.2775718 25 0.0004 25"></polygon>
        <polygon id="path-3" points="0.301168764 0.572 8.43786317 0.572 8.43786317 8.922466 0.301168764 8.922466"></polygon>
    </defs>
    <g id="Home-Page---mobile" stroke="none" stroke-width="1" fill="none" fill-rule="evenodd">
        <g id="Mobile---home-page" transform="translate(-69.000000, -1649.000000)">
            <g id="Group-21" transform="translate(69.000000, 1646.000000)">
                <g id="Group-19" transform="translate(0.000000, 2.000000)">
                    <g id="spicy-icon">
                        <g id="Group-3" transform="translate(0.000000, 8.428200)">
                            <mask id="mask-2" fill="white">
                                <use xlink:href="#path-1"></use>
                            </mask>
                            <g id="Clip-2"></g>
                            <path d="M0.0334,16.3825 C1.3164,18.3135 2.8964,20.1625 4.7504,21.6015 C5.6774,22.3245 6.6844,22.9465 7.7674,23.3905 C8.8514,23.8145 10.0184,24.0745 11.1704,24.2875 C13.4864,24.6955 15.8714,24.7265 18.1794,24.2965 C20.4914,23.8885 22.7024,23.0285 24.7674,21.9165 C26.8274,20.7815 28.7564,19.4095 30.4414,17.7705 C32.1404,16.1455 33.5904,14.2735 34.9114,12.3205 C36.1944,10.3445 37.5024,8.3425 38.4014,6.1855 C38.6084,5.6435 38.8034,5.0885 38.8644,4.5295 C38.8914,4.2525 38.8884,3.9755 38.8204,3.7235 C38.7504,3.4655 38.6024,3.2815 38.3924,3.0445 C38.0724,2.6195 37.5214,2.3285 37.0384,2.0085 C36.5384,1.6995 36.0264,1.4025 35.5114,1.1175 L35.5094,1.1165 L35.4854,1.1015 C34.9204,0.7295 34.1444,0.5915 33.4234,0.6115 C33.0634,0.6275 32.6724,0.6545 32.3494,0.7615 C32.0184,0.8785 31.6974,1.0555 31.4064,1.2805 C30.2364,2.1835 29.3244,3.4335 28.5294,4.6945 L28.5344,4.6835 L24.4514,12.9535 C22.8424,15.6155 20.4404,17.7755 17.6034,19.0225 C16.1844,19.6395 14.6584,19.9995 13.1144,20.0995 C11.5724,20.1735 10.0254,20.0755 8.5084,19.8095 C5.4924,19.2635 2.5154,18.1195 0.0334,16.3825 M0.0004,16.3455 C2.6114,18.0495 5.4994,19.1725 8.5284,19.6895 C10.0394,19.9425 11.5764,20.0275 13.1054,19.9415 C14.6294,19.8315 16.1324,19.4645 17.5254,18.8455 C20.3084,17.6035 22.6704,15.4275 24.2204,12.8335 L28.2524,4.5455 L28.2584,4.5345 C29.0694,3.2355 29.9684,1.9745 31.2024,1.0075 C31.5094,0.7665 31.8594,0.5675 32.2414,0.4305 C32.6424,0.2995 33.0184,0.2795 33.4134,0.2575 C34.1964,0.2415 34.9964,0.3485 35.7114,0.8105 L35.6864,0.7945 C36.2114,1.0805 36.7264,1.3755 37.2374,1.6865 C37.7334,2.0165 38.2794,2.2795 38.6934,2.7975 C38.8774,2.9985 39.1164,3.2895 39.1984,3.6125 C39.2884,3.9355 39.2894,4.2595 39.2614,4.5705 C39.1954,5.1945 38.9954,5.7715 38.7854,6.3355 C37.8704,8.5695 36.5774,10.5725 35.2984,12.5785 C33.9814,14.5605 32.5224,16.4745 30.7864,18.1275 C29.0694,19.7985 27.1004,21.1995 25.0074,22.3545 C20.8304,24.7065 15.8044,25.5705 11.1094,24.6215 C9.9364,24.3865 8.7794,24.1135 7.6574,23.6585 C6.5504,23.1865 5.5314,22.5365 4.6014,21.7885 C2.7554,20.2585 1.2154,18.4405 0.0004,16.3455" id="Fill-1" fill="#231F20" mask="url(#mask-2)"></path>
                        </g>
                        <g id="Group-6" transform="translate(35.000000, 0.428200)">
                            <mask id="mask-4" fill="white">
                                <use xlink:href="#path-3"></use>
                            </mask>
                            <g id="Clip-5"></g>
                            <path d="M0.3068,8.8816 C1.0218,7.9566 1.7368,7.0466 2.3498,6.0746 C2.9858,5.1306 3.4808,4.0896 4.0708,3.0656 C4.3608,2.5556 4.6538,2.0466 5.0048,1.5646 C5.1808,1.3246 5.3658,1.0876 5.6038,0.8826 C5.8338,0.6606 6.1948,0.5506 6.4978,0.5746 C7.1308,0.5906 7.7078,0.9746 8.0148,1.4916 C8.3208,2.0146 8.4268,2.6146 8.4378,3.1966 C8.4388,3.2106 8.4278,3.2226 8.4138,3.2226 C8.4008,3.2226 8.3898,3.2126 8.3888,3.1996 C8.3448,2.6236 8.2028,2.0446 7.8888,1.5736 C7.5748,1.1076 7.0398,0.8066 6.4958,0.8246 C5.9268,0.7836 5.5968,1.2876 5.2708,1.7506 C4.9558,2.2256 4.6868,2.7396 4.4228,3.2546 C3.8968,4.2726 3.4858,5.3986 2.7628,6.3576 C2.0548,7.3046 1.2668,8.1876 0.3418,8.9176 C0.3308,8.9256 0.3148,8.9236 0.3068,8.9126 C0.2988,8.9036 0.2998,8.8906 0.3068,8.8816" id="Fill-4" fill="#231F20" mask="url(#mask-4)"></path>
                        </g>
                        <path d="M38.1232,10.9899 C38.1322,10.1149 38.2612,9.2589 38.3892,8.4029 C38.5312,7.5489 38.7692,6.7139 38.9962,5.8789 C39.2212,5.0429 39.4622,4.2109 39.7432,3.3899 C39.8882,2.9809 40.0432,2.5739 40.2272,2.1789 C40.4282,1.8089 40.5842,1.3419 41.0252,1.1589 C41.0382,1.1549 41.0522,1.1599 41.0572,1.1729 C41.0612,1.1839 41.0572,1.1979 41.0452,1.2029 L41.0342,1.2089 C40.6672,1.3909 40.5262,1.8619 40.3652,2.2379 C40.2152,2.6379 40.0932,3.0499 39.9812,3.4649 C39.7512,4.2909 39.5602,5.1299 39.3852,5.9719 C39.2112,6.8149 39.0842,7.6669 38.8792,8.5029 C38.6622,9.3369 38.4642,10.1749 38.1722,10.9979 C38.1682,11.0109 38.1532,11.0189 38.1402,11.0139 C38.1302,11.0109 38.1232,10.9999 38.1232,10.9899" id="Fill-7" fill="#231F20"></path>
                        <path d="M27.5944,19.5178 C28.1954,17.8188 28.9154,16.1608 29.7864,14.5698 C30.2284,13.7788 30.6834,12.9808 31.3004,12.2908 C31.9244,11.6468 32.6964,10.9478 33.6554,10.9118 C33.6694,10.9108 33.6804,10.9218 33.6814,10.9358 C33.6814,10.9468 33.6724,10.9568 33.6624,10.9608 C32.8194,11.2728 32.2284,11.9368 31.6804,12.6148 C31.1454,13.3098 30.6134,14.0198 30.1324,14.7728 C29.1984,16.2938 28.3734,17.8948 27.6404,19.5358 C27.6354,19.5488 27.6204,19.5548 27.6084,19.5498 C27.5954,19.5438 27.5904,19.5298 27.5944,19.5178" id="Fill-9" fill="#231F20"></path>
                    </g>
                </g>
            </g>
        </g>
    </g>
</svg>