<?xml version="1.0" encoding="UTF-8"?>
<svg width="34px" height="34px" viewBox="0 0 34 34" version="1.1" xmlns="http://www.w3.org/2000/svg" xmlns:xlink="http://www.w3.org/1999/xlink">
    <!-- Generator: sketchtool 52.5 (67469) - http://www.bohemiancoding.com/sketch -->
    <title>DA9727EA-863E-4804-9F51-EAC226D53976</title>
    <desc>Created with sketchtool.</desc>
    <g id="Home-Page---mobile" stroke="none" stroke-width="1" fill="none" fill-rule="evenodd">
        <g id="Mobile---home-page" transform="translate(-172.000000, -1649.000000)">
            <g id="Group-21" transform="translate(69.000000, 1646.000000)">
                <g id="Group-18" transform="translate(88.000000, 3.000000)">
                    <g id="vegiterian-icon" transform="translate(15.000000, 0.000000)">
                        <path d="M21.0289,26.4864 L27.4409,10.8064 L21.6819,26.7384 C21.6159,26.9204 21.4159,27.0144 21.2339,26.9484 C21.0519,26.8824 20.9579,26.6824 21.0239,26.5004 C21.0249,26.4964 21.0279,26.4904 21.0289,26.4864" id="Fill-1" fill="#010202"></path>
                        <path d="M21.4884,26.2427 C21.1554,27.0747 22.2144,33.0967 22.2144,33.0967 C22.2144,33.0967 17.8914,30.2707 15.7304,25.0607 C13.5684,19.8507 14.4004,18.7977 14.5664,15.7497 C14.7324,12.7007 17.5384,7.9437 19.1944,6.3547 C20.3874,5.2097 24.3804,2.1997 26.5484,0.5847 C27.3284,0.0037 28.4294,0.1997 28.9694,1.0077 C31.4814,4.7637 32.9184,9.1817 32.8244,13.6997 C32.7684,16.3787 32.1774,19.0807 30.4324,20.8677 C30.4324,20.8677 26.3164,24.8387 22.9904,25.2267 C19.6654,25.6147 21.8714,31.6847 21.8714,31.6847" id="Stroke-3" stroke="#010202" stroke-width="0.5" stroke-linecap="round" stroke-linejoin="round"></path>
                        <path d="M12.7926,27.1114 C12.7926,27.1114 7.1946,25.7254 5.1996,23.4534 C3.2046,21.1804 -0.0104,17.9664 0.2666,4.3874 C0.2666,4.3874 2.3726,2.2264 13.5686,8.2674" id="Stroke-5" stroke="#010202" stroke-width="0.5" stroke-linecap="round" stroke-linejoin="round"></path>
                        <path d="M6.9278,10.4122 C7.7488,11.2282 8.5368,12.0762 9.2838,12.9642 C9.6578,13.4072 10.0548,13.8382 10.3508,14.3482 C10.6218,14.8592 10.9418,15.4012 10.9328,16.0232 C10.9328,16.0372 10.9218,16.0482 10.9078,16.0482 C10.8978,16.0482 10.8898,16.0422 10.8858,16.0342 L10.8838,16.0302 C10.6218,15.5182 10.2758,15.0802 9.9338,14.6242 C9.5958,14.1692 9.2958,13.6812 8.9678,13.2092 C8.2978,12.2762 7.6018,11.3552 6.8908,10.4452 C6.8818,10.4342 6.8838,10.4192 6.8948,10.4102 C6.9048,10.4022 6.9188,10.4032 6.9278,10.4122" id="Fill-7" fill="#010202"></path>
                    </g>
                </g>
            </g>
        </g>
    </g>
</svg>