<?xml version="1.0" encoding="UTF-8"?>
<svg width="17px" height="21px" viewBox="0 0 17 21" version="1.1" xmlns="http://www.w3.org/2000/svg" xmlns:xlink="http://www.w3.org/1999/xlink">
    <!-- Generator: sketchtool 52.5 (67469) - http://www.bohemiancoding.com/sketch -->
    <title>243EC7FD-BABB-440C-AA7D-AD5DD0DC008A</title>
    <desc>Created with sketchtool.</desc>
    <g id="Home-Page---mobile" stroke="none" stroke-width="1" fill="none" fill-rule="evenodd">
        <g id="Mobile---home-page" transform="translate(-63.000000, -3132.000000)" fill="#000000" fill-rule="nonzero">
            <g id="Group-17" transform="translate(55.000000, 3126.000000)">
                <g id="Group-20">
                    <g id="Group-28">
                        <g id="Apple-icon" transform="translate(7.700000, 5.600000)">
                            <path d="M12.3429534,0.589232388 C11.1834116,0.973532208 10.083411,1.36250979 9.27637008,2.16404666 C8.46940295,2.9665239 8.04285054,4.16460957 8.17732866,5.90143353 C8.19654246,6.17833773 8.50107959,6.39968748 8.77679909,6.33846668 C9.98149487,6.07284697 11.1621872,5.60661399 11.9970928,4.74103519 C12.8319983,3.87545639 13.2623135,2.6010798 12.9885123,0.966033322 C12.9193427,0.586459488 12.632101,0.507347447 12.3429288,0.589280612 L12.3429534,0.589232388 Z M5.20311915,6.5870873 C5.80450788,6.5870873 6.40589662,6.84139839 7.00922825,7.13713419 C7.61253529,7.43289411 8.19567553,7.79269596 8.89216795,7.79269596 C9.67992743,7.71922858 10.4206146,7.38204154 11.0364399,7.1296112 C11.7483033,6.83951764 12.4649871,6.5870873 13.0730899,6.5870873 C14.1721313,6.5870873 15.3470442,7.27749116 16.0626951,8.01120048 C14.7100438,9.18760931 13.5649631,10.569261 13.5649631,12.1329354 C13.5736092,14.2483928 14.9714252,15.4059218 16.447094,16.4277957 C16.1790723,17.5787662 15.5882342,18.7815538 14.8408329,19.6978887 C14.032882,20.687814 13.0731637,21.2953202 12.335231,21.2953202 C11.7069368,21.2953202 11.1699096,21.0937569 10.6290459,20.858287 C10.0881822,20.6228172 9.54827757,20.3308332 8.89211876,20.3308332 C8.23595995,20.3308332 7.65186055,20.6134038 7.04759436,20.8507399 C6.44332816,21.088076 5.83136416,21.2953202 5.20306996,21.2953202 C4.9263913,21.2953202 4.41722878,21.0664426 3.86578977,20.5568849 C3.31435075,20.0473223 2.71679863,19.2872343 2.18264895,18.3717191 C1.11533336,16.5397485 0.284313629,14.0749298 0.284313629,11.6504508 C0.238200518,8.76181244 2.69756639,6.59171683 5.20304536,6.5868944 L5.20311915,6.5870873 Z" id="Shape"></path>
                        </g>
                    </g>
                </g>
            </g>
        </g>
    </g>
</svg>