<?xml version="1.0" encoding="UTF-8"?>
<svg width="18px" height="18px" viewBox="0 0 18 18" version="1.1" xmlns="http://www.w3.org/2000/svg" xmlns:xlink="http://www.w3.org/1999/xlink">
    <!-- Generator: sketchtool 52.5 (67469) - http://www.bohemiancoding.com/sketch -->
    <title>6626517D-B715-4C8E-B637-58439E16D0AD</title>
    <desc>Created with sketchtool.</desc>
    <g id="Home-Page---mobile" stroke="none" stroke-width="1" fill="none" fill-rule="evenodd">
        <g id="Mobile---home-page" transform="translate(-293.000000, -17.000000)" fill="#000000" fill-rule="nonzero">
            <g id="User-Icon-Copy" transform="translate(293.000000, 17.000000)">
                <g id="noun_User_1331891_000000" transform="translate(0.391304, 0.000000)">
                    <path d="M14.1215568,17.9975903 C13.2504855,17.9975903 12.3284055,17.7828794 11.3749356,17.5601419 C10.3939994,17.3313844 9.38755896,17.0946005 8.39092783,17.0946005 C7.3942967,17.0946005 6.41532242,17.3374044 5.4677381,17.5721817 C3.52156078,18.0557829 1.68524831,18.5132978 0.113788593,16.5869195 L0,16.4223747 L0.0294280845,16.2337502 C0.46888748,13.3100698 1.96579604,10.9562764 4.24352978,9.61182488 L4.52996314,9.44326678 L4.76146407,9.68807735 C5.76185837,10.7686459 7.1527595,11.380764 8.60771472,11.380764 C10.0626699,11.380764 11.4535711,10.7686459 12.4539654,9.68807735 L12.6815425,9.44326678 L12.9718996,9.61182488 C15.2515953,10.9602897 16.7485038,13.3120765 17.1879632,16.2337502 L17.2173913,16.4344146 L17.0937933,16.5869195 C16.3803701,17.5159314 15.2757743,18.0401902 14.1215568,17.9975903 Z M8.40073719,16.7033049 C9.44052951,16.7033049 10.4724743,16.9441021 11.4691055,17.1788795 C13.5604613,17.6685006 15.3673457,18.0919025 16.7975506,16.336089 L16.8112837,16.3200359 L16.8112837,16.3019761 C16.3894812,13.4926744 14.9592763,11.2452331 12.7835599,9.9589743 L12.7560937,9.94292114 L12.7345131,9.96700087 C11.6606747,11.1202625 10.1716469,11.7729805 8.61458127,11.7729805 C7.05751559,11.7729805 5.56848784,11.1202625 4.49464944,9.96700087 L4.47110697,9.94292114 L4.44364076,9.9589743 C2.25615314,11.2452331 0.825948238,13.4966877 0.406107566,16.3019761 L0.406107566,16.3220425 L0.419840672,16.3380957 C1.8343506,18.0738427 3.48036146,17.6644874 5.38730134,17.1909194 C6.34665689,16.9521287 7.34328802,16.7033049 8.40073719,16.7033049 Z M8.60673378,10.6271868 C5.7375936,10.6271868 3.41169593,8.24820997 3.41169593,5.31359338 C3.41169593,2.37897679 5.7375936,5.34677376e-16 8.60673378,0 C11.475874,-5.34677376e-16 13.8017716,2.37897679 13.8017716,5.31359338 C13.7985281,8.24683471 11.4745294,10.6238692 8.60673378,10.6271868 Z M8.60673378,0.393302229 C6.66009175,0.393302394 4.90516556,1.59279898 4.16040132,3.43238198 C3.41563707,5.27196497 3.82773152,7.38929036 5.2044959,8.7968997 C6.58126028,10.204509 8.65151231,10.6251445 10.4497472,9.86263402 C12.247982,9.10012355 13.4200001,7.3046594 13.4192065,5.31359338 C13.4170446,2.59567488 11.2640097,0.392607975 8.60673378,0.389288941 L8.60673378,0.393302229 Z" id="Shape"></path>
                </g>
            </g>
        </g>
    </g>
</svg>