<?xml version="1.0" encoding="UTF-8"?>
<svg width="18px" height="18px" viewBox="0 0 18 18" version="1.1" xmlns="http://www.w3.org/2000/svg" xmlns:xlink="http://www.w3.org/1999/xlink">
    <!-- Generator: sketchtool 52.5 (67469) - http://www.bohemiancoding.com/sketch -->
    <title>89530582-1524-4F5C-BF28-93084C174383</title>
    <desc>Created with sketchtool.</desc>
    <g id="Home-Page---mobile" stroke="none" stroke-width="1" fill="none" fill-rule="evenodd">
        <g id="Mobile---home-page" transform="translate(-249.000000, -17.000000)" fill="#000000" fill-rule="nonzero">
            <g id="np_search_1543701_000000-copy-2" transform="translate(249.000000, 17.000000)">
                <path d="M6.54386516,9.30194341e-05 C2.93451672,9.30194341e-05 0,2.93067029 0,6.53517336 C0,10.1396764 2.93451672,13.0702537 6.54386516,13.0702537 C8.26666539,13.0702537 9.82767366,12.3962349 10.9919796,11.3261393 L17.6047717,17.930054 C17.6511623,17.9763824 17.7212023,18 17.7675929,18 C17.8139835,18 17.8840235,17.9763824 17.9304141,17.930054 C18.0231953,17.8373974 18.0231953,17.6975055 17.9304141,17.6048581 L11.317622,10.9762932 C12.4118833,9.8135503 13.0640809,8.25570732 13.0640809,6.53415015 C13.0868215,2.93057727 10.1533161,0 6.54396762,0 L6.54386516,9.30194341e-05 Z M10.8981366,10.7673251 C10.8744872,10.7673251 10.8517459,10.7909427 10.8280966,10.8136534 C10.8044472,10.837271 10.8044472,10.8599817 10.781706,10.8835994 C9.68744466,11.9536949 8.19648103,12.6040868 6.54386516,12.6040868 C3.1901983,12.6040868 0.46572238,9.88350091 0.46572238,6.53503383 C0.46572238,3.18586911 3.18996544,0.465050661 6.54386516,0.465050661 C9.89660058,0.465050661 12.6220079,3.18563656 12.6220079,6.53503383 C12.6210984,8.18559393 11.9689022,9.67443973 10.8982996,10.7671855 L10.8981366,10.7673251 Z" id="Shape"></path>
            </g>
        </g>
    </g>
</svg>